<svg width="30" height="25" viewBox="0 0 30 25" fill="none" xmlns="http://www.w3.org/2000/svg">
<path d="M15.9697 1.01172C16.1085 1.02745 16.2369 1.05852 16.3535 1.10059L16.5195 1.17188L16.6016 1.21875L16.6465 1.24707L16.7256 1.30273L16.708 1.28906L16.7324 1.30762L16.7451 1.31934L16.7461 1.31836L25.6777 8.28809L25.6904 8.29785C26.3248 8.80932 26.8786 9.38946 27.3447 10.0273L27.5391 10.3037L27.5508 10.3223L27.7363 10.6104L27.748 10.6289L27.9414 10.9619C28.3141 11.6348 28.5912 12.3449 28.7686 13.084L28.8486 13.4561L28.8535 13.4814L28.916 13.8594L28.9199 13.8857C28.9665 14.222 28.993 14.5592 28.999 14.8945L28.998 15.2295L28.9971 15.2568L28.9785 15.6475L28.9766 15.6787C28.9491 16.0218 28.9004 16.3632 28.8311 16.7002L28.7549 17.0361L28.748 17.0625L28.6387 17.4521L28.6309 17.4795C28.2651 18.6648 27.6485 19.755 26.7939 20.7188L26.793 20.7197C26.114 21.4831 25.3182 22.1299 24.418 22.6475L24.0254 22.8613C24.0175 22.8654 24.009 22.8692 24.001 22.873L23.583 23.0752C23.5755 23.0788 23.5681 23.0825 23.5605 23.0859C22.3972 23.6124 21.1561 23.9146 19.8633 23.9844L19.3057 24H19.292C17.8026 24 16.3758 23.697 15.0498 23.1016L15.0488 23.1006C13.9513 22.6066 12.9833 21.9368 12.1611 21.1084L12.1426 21.0898L11.8359 20.7646L11.8184 20.7451C10.9628 19.7865 10.3443 18.6983 9.97754 17.5117L9.97656 17.5098C9.93318 17.3684 9.89377 17.2176 9.8584 17.0654L9.7666 16.6113L9.70703 16.2012C9.70566 16.189 9.70502 16.1763 9.7041 16.1641L9.6875 15.9521C9.68592 15.931 9.68481 15.9098 9.68457 15.8887C9.68334 15.7758 9.69018 15.6458 9.69824 15.5303L9.69922 15.5137L9.72852 15.1807L9.73047 15.1621C9.7439 15.0343 9.67835 14.9201 9.58203 14.8672V14.8662C9.50499 14.8243 9.41446 14.8251 9.33789 14.8652L9.26562 14.918L3.91699 19.3613L3.9082 19.3682C3.46769 19.7262 2.94796 19.9189 2.44629 19.9189C2.12565 19.9189 1.82299 19.842 1.57031 19.6719L1.46582 19.5938C1.43717 19.57 1.40962 19.5444 1.38379 19.5176L1.34082 19.4736C1.31602 19.4479 1.29239 19.4208 1.27051 19.3926L1.20996 19.3057L1.18359 19.2617L1.14258 19.1885C1.08105 19.0673 1.03738 18.9339 1.01562 18.7891L1.00098 18.6406C0.999535 18.6079 1.00017 18.5747 1.00195 18.542L1.00781 18.4326L1.01367 18.3623C1.07685 17.8618 1.3616 17.3531 1.82227 16.9648C1.86631 16.9226 1.91394 16.8836 1.96582 16.8496L1.96973 16.8467L11.8857 9.39746L11.9482 9.33203C11.9919 9.26932 12.0119 9.1886 11.999 9.10742L11.9873 9.05957C11.9462 8.93329 11.8362 8.86111 11.7275 8.86133L10.624 8.86523H10.5605L7.15234 8.87012H6.31543C6.02604 8.86993 5.74795 8.79492 5.50879 8.6377L5.40918 8.56445L5.33105 8.49609L5.27344 8.43945L5.20117 8.36035C5.04576 8.17149 4.95752 7.96907 4.91602 7.7832L4.88965 7.60449C4.88686 7.56854 4.88561 7.53214 4.88672 7.49609L4.8877 7.46387L4.90234 7.32129L4.93652 7.16895C5.03081 6.82235 5.22916 6.54229 5.51953 6.33887H5.52051L5.65234 6.25488C5.97453 6.07098 6.39876 5.96314 6.91406 5.96289H6.91504L17.8779 5.96973L17.957 5.95703C18.0345 5.93183 18.1028 5.86989 18.1348 5.77734L18.1475 5.72949C18.167 5.61755 18.1235 5.50588 18.042 5.44043L18.0361 5.43555L16.3408 4.05469L16.3262 4.04199L16.3135 4.03223V4.03125L14.833 2.82715C14.5505 2.59941 14.414 2.2365 14.4756 1.87891C14.5373 1.52127 14.7874 1.2245 15.1299 1.10449L15.2715 1.06152C15.4181 1.02312 15.5805 1 15.7539 1L15.9697 1.01172ZM19.0801 8.39453C15.7535 8.54832 13.044 11.0586 13.0439 14.2109L13.0527 14.5137C13.2254 17.6228 16.0398 20.0332 19.4043 20.0332C22.8733 20.033 25.7572 17.4704 25.7637 14.2217L25.7549 13.9033L25.7314 13.6143C25.4074 10.652 22.6608 8.38789 19.4043 8.3877L19.0801 8.39453ZM19.3984 10.9238C20.0604 10.9238 20.6754 11.1064 21.1865 11.416L21.3984 11.5557L21.4355 11.584L21.5918 11.707L21.626 11.7354L21.8115 11.9092C22.1669 12.2703 22.427 12.7118 22.5547 13.2031L22.6074 13.4521L22.6143 13.5059L22.6348 13.6904L22.6387 13.7441C22.6719 14.3636 22.4944 14.9578 22.1484 15.4609L21.9902 15.6709C21.9806 15.6825 21.9701 15.6939 21.96 15.7051L21.8242 15.8555C21.8128 15.8681 21.8002 15.8805 21.7881 15.8926C21.2006 16.478 20.3536 16.8535 19.3984 16.8535C18.6679 16.8534 18.0004 16.6341 17.4639 16.2686L17.2422 16.1035L17.2021 16.0693L17.0439 15.9258C17.0325 15.9154 17.0217 15.9044 17.0107 15.8936C16.4343 15.3197 16.1167 14.556 16.1602 13.7441V13.7432L16.1855 13.4873C16.2735 12.8982 16.5502 12.362 16.9609 11.9346L16.9922 11.9033L17.1357 11.7666L17.1719 11.7344C17.7509 11.2345 18.5354 10.9239 19.3984 10.9238Z" fill="#C476E0" fill-opacity="0.2" stroke="#C476E0" stroke-width="2" stroke-linejoin="round"/>
</svg>
