<svg width="32" height="32" viewBox="0 0 32 32" fill="none" xmlns="http://www.w3.org/2000/svg">
<path opacity="0.2" d="M11.5125 21.9877C11.953 23.2438 12.6671 24.3863 13.603 25.3327C14.539 26.2792 15.6735 27.0059 16.9246 27.4604C18.1757 27.9149 19.5121 28.0858 20.8373 27.9609C22.1625 27.8359 23.4434 27.4181 24.5875 26.7377V26.7377L27.7 27.6252C27.8282 27.6612 27.9637 27.6625 28.0926 27.6288C28.2215 27.5951 28.3391 27.5277 28.4333 27.4335C28.5275 27.3393 28.5949 27.2217 28.6286 27.0929C28.6623 26.964 28.661 26.8284 28.625 26.7002L27.7374 23.5877C28.5298 22.2577 28.9651 20.7456 29.0013 19.1979C29.0375 17.6502 28.6733 16.1194 27.944 14.7539C27.2147 13.3883 26.145 12.2343 24.8386 11.4036C23.5322 10.573 22.0334 10.0939 20.4875 10.0127V10.0127C20.8303 10.9713 21.0037 11.9822 21 13.0002C21 15.3871 20.0517 17.6763 18.3639 19.3642C16.6761 21.052 14.3869 22.0002 12 22.0002L11.5125 21.9877Z" fill="#C476E0"/>
<path d="M4.26241 17.5877C3.14161 15.6994 2.74876 13.4669 3.15764 11.3094C3.56653 9.15196 4.74901 7.21799 6.48302 5.87075C8.21702 4.5235 10.3832 3.85566 12.5748 3.99267C14.7664 4.12967 16.8326 5.06209 18.3853 6.61481C19.938 8.16752 20.8705 10.2337 21.0075 12.4253C21.1445 14.6169 20.4766 16.7831 19.1294 18.5171C17.7821 20.2511 15.8482 21.4336 13.6907 21.8425C11.5332 22.2514 9.30071 21.8585 7.41241 20.7377L4.29991 21.6252C4.17167 21.6613 4.03614 21.6625 3.90726 21.6288C3.77837 21.5951 3.66079 21.5277 3.56659 21.4335C3.47239 21.3393 3.40499 21.2218 3.3713 21.0929C3.33761 20.964 3.33886 20.8285 3.37491 20.7002L4.26241 17.5877Z" stroke="#C476E0" stroke-width="2" stroke-linecap="round" stroke-linejoin="round"/>
<path d="M11.5125 21.9877C11.953 23.2438 12.6671 24.3863 13.603 25.3327C14.539 26.2792 15.6735 27.0059 16.9246 27.4604C18.1757 27.9149 19.5121 28.0858 20.8373 27.9609C22.1625 27.8359 23.4434 27.4181 24.5875 26.7377V26.7377L27.7 27.6252C27.8282 27.6612 27.9637 27.6625 28.0926 27.6288C28.2215 27.5951 28.3391 27.5277 28.4333 27.4335C28.5275 27.3393 28.5949 27.2217 28.6286 27.0929C28.6623 26.964 28.661 26.8284 28.625 26.7002L27.7374 23.5877C28.5298 22.2577 28.9651 20.7456 29.0013 19.1979C29.0375 17.6502 28.6733 16.1194 27.944 14.7539C27.2147 13.3883 26.145 12.2343 24.8386 11.4036C23.5322 10.573 22.0334 10.0939 20.4875 10.0127" stroke="#C476E0" stroke-width="2" stroke-linecap="round" stroke-linejoin="round"/>
</svg>
