<svg width="32" height="32" viewBox="0 0 32 32" fill="none" xmlns="http://www.w3.org/2000/svg">
<path opacity="0.2" d="M15.3248 3.61722L1.90025 15.895C1.22685 16.5109 1.66257 17.633 2.57513 17.633H7.17196V27.3798C7.17196 27.9321 7.61968 28.3798 8.17196 28.3798H13V22C13 21.4477 13.4477 21 14 21H18C18.5523 21 19 21.4477 19 22V28.3798H23.8275C24.3797 28.3798 24.8275 27.9321 24.8275 27.3798V17.633H29.4248C30.3374 17.633 30.7731 16.5109 30.0997 15.895L16.6746 3.61721C16.2925 3.26779 15.7069 3.26779 15.3248 3.61722Z" fill="#C476E0"/>
<path d="M19 28.3798H23.8275C24.3797 28.3798 24.8275 27.9321 24.8275 27.3798V17.633H29.4248C30.3374 17.633 30.7731 16.5109 30.0997 15.895L16.6746 3.61721C16.2925 3.26779 15.7069 3.26779 15.3248 3.61722L1.90025 15.895C1.22685 16.5109 1.66257 17.633 2.57513 17.633H7.17196V27.3798C7.17196 27.9321 7.61968 28.3798 8.17196 28.3798H13M19 28.3798H13M19 28.3798V22C19 21.4477 18.5523 21 18 21H14C13.4477 21 13 21.4477 13 22V28.3798" stroke="#C476E0" stroke-width="2"/>
</svg>
