<svg width="28" height="28" viewBox="0 0 28 28" fill="none" xmlns="http://www.w3.org/2000/svg">
<path d="M1.88928 6.11084V25.1108L1.89417 25.2134C1.94551 25.7175 2.37162 26.1108 2.88928 26.1108H21.8893V26.3335H2.88928C2.60632 26.3335 2.36447 26.2515 2.13342 26.0562L2.03479 25.9653C1.77342 25.7038 1.66663 25.4344 1.66663 25.1108V6.11084H1.88928ZM7.33362 1.6665H25.111C25.3941 1.6665 25.6357 1.74831 25.8668 1.94385L25.9655 2.03467C26.2266 2.29607 26.3336 2.56573 26.3336 2.88916V20.6665C26.3336 20.9899 26.2264 21.2589 25.9655 21.52C25.7039 21.7816 25.4344 21.8892 25.111 21.8892H7.33362C7.05067 21.8892 6.80869 21.8074 6.57776 21.6118L6.47913 21.521V21.52L6.38831 21.4214C6.19289 21.1905 6.11096 20.9494 6.11096 20.6665V2.88916C6.11096 2.56582 6.21769 2.29617 6.47913 2.03467C6.74035 1.77345 7.01006 1.6665 7.33362 1.6665ZM7.33362 1.88916C6.78133 1.88916 6.33362 2.33688 6.33362 2.88916V20.6665C6.33362 21.2188 6.78133 21.6665 7.33362 21.6665H25.111C25.6632 21.6665 26.111 21.2188 26.111 20.6665V2.88916C26.111 2.37149 25.7176 1.94539 25.2135 1.89404L25.111 1.88916H7.33362ZM15.8444 14.9995V15.2222H11.067V14.9995H15.8444ZM21.4 11.6665V11.8892H11.067V11.6665H21.4ZM21.4 8.3335V8.55518H11.067V8.3335H21.4Z" stroke="#C476E0" stroke-width="2" stroke-linejoin="round"/>
</svg>
