<svg width="28" height="28" viewBox="0 0 28 28" fill="none" xmlns="http://www.w3.org/2000/svg">
<path d="M20.3815 10.2427C21.8469 10.2428 22.9986 10.7125 23.7946 11.5747C24.6007 12.4481 25.1998 13.8961 25.1998 16.147V24.0522H22.5983V16.77C22.5983 15.5521 22.3875 14.3067 21.7203 13.3286C20.9922 12.2614 19.851 11.7007 18.4615 11.7007C17.8745 11.7007 17.3526 11.8069 16.8922 11.9858C17.1692 11.5986 17.4985 11.2222 17.9362 10.9194C18.4657 10.5532 19.2254 10.2427 20.3815 10.2427ZM14.1129 10.6235V16.2524L14.1149 16.2476C14.1143 16.2966 14.1129 16.3439 14.1129 16.3892V24.0522H11.5162C11.5174 23.7785 11.5188 23.471 11.5201 23.1362C11.5257 21.7333 11.5323 19.8469 11.5367 17.9126C11.543 15.1975 11.5445 12.345 11.5319 10.6235H14.1129ZM5.72034 10.6235V24.0522H3.11975V10.6235H5.72034ZM4.45569 2.80029C5.06474 2.80029 5.44722 2.99396 5.67346 3.2124C5.89986 3.4311 6.06268 3.76384 6.07581 4.22021C6.07171 4.63042 5.9212 4.95401 5.68616 5.1792C5.44872 5.40668 5.04574 5.60784 4.42053 5.60791H4.38538C3.31114 5.60779 2.80042 4.95378 2.80042 4.20264C2.80053 3.77459 2.95621 3.44893 3.19495 3.22412C3.43654 2.99663 3.84267 2.80031 4.45569 2.80029Z" stroke="#C476E0" stroke-width="2.8"/>
</svg>
