<svg width="32" height="32" viewBox="0 0 32 32" fill="none" xmlns="http://www.w3.org/2000/svg">
<g clip-path="url(#clip0_1107_1002)">
<path d="M25.5 0.299805L25.6406 0.314453C25.9598 0.379577 26.2002 0.661589 26.2002 1V1.00195L26.1953 1.08008L25.7832 4.78125C25.7568 5.01817 25.6111 5.22534 25.3975 5.33105L20.457 7.77148L24.749 7.77344C24.9453 7.77363 25.1322 7.85709 25.2646 8.00195C25.3971 8.14692 25.4628 8.34051 25.4453 8.53613L24.4268 19.9365C24.404 20.1912 24.2448 20.4101 24.0166 20.5127L23.915 20.5498L16.1787 22.6748C16.0876 22.6998 15.9925 22.7059 15.8994 22.6934L15.8076 22.6748L8.0791 20.5508C7.79736 20.4733 7.59333 20.2285 7.56738 19.9375L7.05273 14.166C7.03542 13.9705 7.10097 13.7767 7.2334 13.6318C7.36596 13.4869 7.55357 13.4044 7.75 13.4043L11.5996 13.4033L11.7344 13.416C12.0395 13.4755 12.2756 13.7336 12.2979 14.0547L12.4629 16.4668L15.9932 17.3945L19.5586 16.4629L19.8613 12.8721L7.6377 12.8887C7.32306 12.8891 7.05276 12.6814 6.96582 12.3896L6.94043 12.2598L6.5625 8.54395C6.5332 8.25602 6.68429 7.97957 6.94238 7.84863L11.7363 5.41602L6.89062 5.43652C6.53101 5.43804 6.22873 5.1672 6.19141 4.80957L5.80371 1.07227C5.78327 0.875109 5.84773 0.678457 5.98047 0.53125C6.1132 0.384144 6.30186 0.299805 6.5 0.299805H25.5Z" stroke="#C476E0" stroke-width="1.4" stroke-linejoin="round"/>
<mask id="path-2-inside-1_1107_1002" fill="white">
<path d="M7.00386 25H8.55103L9.05516 26.9572L9.21934 27.7322H9.24638L9.41056 26.9572L9.88572 25H11.4329V31H10.1697V29.5881C10.1697 29.409 10.1774 29.1831 10.1928 28.9104C10.2083 28.6358 10.2257 28.3535 10.2431 28.0613C10.2604 27.7692 10.2836 27.4869 10.3068 27.2162C10.3319 26.9455 10.3531 26.7215 10.3705 26.5424H10.3435L9.84902 28.3242L9.53804 29.4051H8.86007L8.54909 28.3242L8.08166 26.5424H8.04496C8.06235 26.7215 8.08552 26.9455 8.1087 27.2162C8.13381 27.4869 8.15506 27.7692 8.17244 28.0613C8.18983 28.3535 8.20721 28.6378 8.22266 28.9104C8.23812 29.185 8.24584 29.4109 8.24584 29.5881V31H7L7.00386 25ZM16.5437 29.7264H14.9135L14.6199 31H13.009L14.8034 25H16.7079L18.5023 31H16.8354L16.5437 29.7264ZM16.2598 28.4976L16.169 28.0828C16.1014 27.7926 16.0319 27.4791 15.9585 27.1422C15.8851 26.8033 15.8117 26.4839 15.7383 26.1821H15.7016C15.634 26.4898 15.5664 26.8111 15.4949 27.1461C15.4254 27.481 15.3558 27.7945 15.2882 28.0828L15.1974 28.4976H16.2598ZM21.303 27.9172L19.6825 25H21.4402L21.9153 25.9776C21.9829 26.1198 22.0525 26.2717 22.1259 26.4352C22.1993 26.5988 22.2785 26.778 22.3635 26.9747H22.4002C22.4678 26.778 22.5334 26.5969 22.601 26.4352C22.6686 26.2717 22.7324 26.1198 22.7942 25.9776L23.2153 25H24.8996L23.279 27.9912L25 31H23.2423L22.6937 29.9289C22.6088 29.7692 22.5296 29.6095 22.46 29.4499C22.3905 29.2902 22.3152 29.1168 22.236 28.9338H22.1993C22.1317 29.1188 22.0641 29.2902 21.9926 29.4499C21.9231 29.6095 21.8516 29.7692 21.7782 29.9289L21.2663 31H19.582L21.303 27.9172Z"/>
</mask>
<path d="M7.00386 25V21H3.00644L3.00387 24.9974L7.00386 25ZM8.55103 25L12.4246 24.0022L11.6513 21H8.55103V25ZM9.05516 26.9572L12.9683 26.1282L12.9504 26.0434L12.9287 25.9594L9.05516 26.9572ZM9.21934 27.7322L5.30617 28.5611L5.97788 31.7322H9.21934V27.7322ZM9.24638 27.7322V31.7322H12.4878L13.1596 28.5611L9.24638 27.7322ZM9.41056 26.9572L5.52348 26.0135L5.50959 26.0707L5.49739 26.1282L9.41056 26.9572ZM9.88572 25V21H6.74064L5.99863 24.0563L9.88572 25ZM11.4329 25H15.4329V21H11.4329V25ZM11.4329 31V35H15.4329V31H11.4329ZM10.1697 31H6.16966V35H10.1697V31ZM10.1928 28.9104L14.1864 29.1368L14.1865 29.1352L10.1928 28.9104ZM10.3068 27.2162L6.32389 26.8467L6.32259 26.8608L6.32138 26.8749L10.3068 27.2162ZM10.3705 26.5424L14.3518 26.9287L14.7774 22.5424H10.3705V26.5424ZM10.3435 26.5424V22.5424H7.30234L6.48915 25.4728L10.3435 26.5424ZM9.84902 28.3242L13.6931 29.4303L13.6983 29.4121L13.7034 29.3938L9.84902 28.3242ZM9.53804 29.4051V33.4051H12.5494L13.3821 30.5111L9.53804 29.4051ZM8.86007 29.4051L5.01602 30.5111L5.84869 33.4051H8.86007V29.4051ZM8.54909 28.3242L4.68 29.3392L4.69199 29.3849L4.70505 29.4303L8.54909 28.3242ZM8.08166 26.5424L11.9508 25.5274L11.1677 22.5424H8.08166V26.5424ZM8.04496 26.5424V22.5424H3.63807L4.06366 26.9287L8.04496 26.5424ZM8.1087 27.2162L4.12329 27.5574L4.12449 27.5715L4.1258 27.5856L8.1087 27.2162ZM8.22266 28.9104L12.2163 28.6857L12.2163 28.6841L8.22266 28.9104ZM8.24584 31V35H12.2458V31H8.24584ZM7 31L3 30.9974L2.99742 35H7V31ZM16.5437 29.7264L20.4428 28.8335L19.7313 25.7264H16.5437V29.7264ZM14.9135 29.7264V25.7264H11.7307L11.0157 28.8279L14.9135 29.7264ZM14.6199 31V35H17.8027L18.5177 31.8985L14.6199 31ZM13.009 31L9.17673 29.8539L7.6377 35H13.009V31ZM14.8034 25V21H11.8246L10.9711 23.8539L14.8034 25ZM16.7079 25L20.5402 23.8539L19.6867 21H16.7079V25ZM18.5023 31V35H23.8736L22.3346 29.8539L18.5023 31ZM16.8354 31L12.9363 31.8929L13.6479 35H16.8354V31ZM16.2598 28.4976V32.4976H21.2299L20.1673 27.6424L16.2598 28.4976ZM16.169 28.0828L20.0765 27.2276L20.0708 27.2013L20.0647 27.1751L16.169 28.0828ZM15.9585 27.1422L12.0491 27.989L12.0501 27.9936L15.9585 27.1422ZM15.7383 26.1821L19.625 25.237L18.8822 22.1821H15.7383V26.1821ZM15.7016 26.1821V22.1821H12.485L11.7948 25.3237L15.7016 26.1821ZM15.4949 27.1461L11.583 26.3114L11.5807 26.3222L11.5784 26.333L15.4949 27.1461ZM15.2882 28.0828L11.3939 27.1693L11.3871 27.1984L11.3807 27.2276L15.2882 28.0828ZM15.1974 28.4976L11.2899 27.6424L10.2273 32.4976H15.1974V28.4976ZM21.303 27.9172L24.7956 29.867L25.8815 27.922L24.7997 25.9748L21.303 27.9172ZM19.6825 25V21H12.8847L16.1858 26.9425L19.6825 25ZM21.4402 25L25.0377 23.2514L23.9435 21H21.4402V25ZM21.9153 25.9776L25.5277 24.2598L25.5204 24.2444L25.5129 24.229L21.9153 25.9776ZM22.3635 26.9747L18.6916 28.5613L19.7344 30.9747H22.3635V26.9747ZM22.4002 26.9747V30.9747H25.255L26.1829 28.2749L22.4002 26.9747ZM22.601 26.4352L26.2913 27.9787L26.2945 27.9708L26.2978 27.963L22.601 26.4352ZM22.7942 25.9776L26.4625 27.5725L26.4679 27.5599L22.7942 25.9776ZM23.2153 25V21H20.5829L19.5415 23.4177L23.2153 25ZM24.8996 25L28.4166 26.9054L31.616 21H24.8996V25ZM23.279 27.9912L19.762 26.0858L18.7011 28.044L19.8069 29.9773L23.279 27.9912ZM25 31V35H31.8961L28.4721 29.014L25 31ZM23.2423 31L19.6821 32.8234L20.7968 35H23.2423V31ZM22.6937 29.9289L26.254 28.1055L26.2396 28.0775L26.2248 28.0497L22.6937 29.9289ZM22.236 28.9338L25.9072 27.3456L24.8638 24.9338H22.236V28.9338ZM22.1993 28.9338V24.9338H19.4022L18.4422 27.5609L22.1993 28.9338ZM21.9926 29.4499L18.3416 27.8159L18.3333 27.8344L18.3252 27.8529L21.9926 29.4499ZM21.7782 29.9289L25.3873 31.6536L25.4002 31.6266L25.4127 31.5994L21.7782 29.9289ZM21.2663 31V35H23.7881L24.8754 32.7247L21.2663 31ZM19.582 31L16.0894 29.0502L12.7679 35H19.582V31ZM7.00386 25V29H8.55103V25V21H7.00386V25ZM8.55103 25L4.67747 25.9978L5.1816 27.9549L9.05516 26.9572L12.9287 25.9594L12.4246 24.0022L8.55103 25ZM9.05516 26.9572L5.14199 27.7861L5.30617 28.5611L9.21934 27.7322L13.1325 26.9033L12.9683 26.1282L9.05516 26.9572ZM9.21934 27.7322V31.7322H9.24638V27.7322V23.7322H9.21934V27.7322ZM9.24638 27.7322L13.1596 28.5611L13.3237 27.7861L9.41056 26.9572L5.49739 26.1282L5.33321 26.9033L9.24638 27.7322ZM9.41056 26.9572L13.2976 27.9009L13.7728 25.9437L9.88572 25L5.99863 24.0563L5.52348 26.0135L9.41056 26.9572ZM9.88572 25V29H11.4329V25V21H9.88572V25ZM11.4329 25H7.43288V31H11.4329H15.4329V25H11.4329ZM11.4329 31V27H10.1697V31V35H11.4329V31ZM10.1697 31H14.1697V29.5881H10.1697H6.16966V31H10.1697ZM10.1697 29.5881H14.1697C14.1697 29.5126 14.1733 29.3686 14.1864 29.1368L10.1928 28.9104L6.19924 28.6841C6.18148 28.9975 6.16966 29.3054 6.16966 29.5881H10.1697ZM10.1928 28.9104L14.1865 29.1352C14.2015 28.8691 14.2179 28.6023 14.236 28.299L10.2431 28.0613L6.25012 27.8237C6.2334 28.1046 6.21508 28.4026 6.19915 28.6857L10.1928 28.9104ZM10.2431 28.0613L14.236 28.299C14.2501 28.0613 14.2696 27.8217 14.2922 27.5574L10.3068 27.2162L6.32138 26.8749C6.29765 27.152 6.27074 27.4772 6.25012 27.8237L10.2431 28.0613ZM10.3068 27.2162L14.2897 27.5856C14.3144 27.3193 14.3351 27.1011 14.3518 26.9287L10.3705 26.5424L6.38923 26.1561C6.37119 26.342 6.3494 26.5717 6.32389 26.8467L10.3068 27.2162ZM10.3705 26.5424V22.5424H10.3435V26.5424V30.5424H10.3705V26.5424ZM10.3435 26.5424L6.48915 25.4728L5.99467 27.2547L9.84902 28.3242L13.7034 29.3938L14.1978 27.6119L10.3435 26.5424ZM9.84902 28.3242L6.00497 27.2182L5.69399 28.299L9.53804 29.4051L13.3821 30.5111L13.6931 29.4303L9.84902 28.3242ZM9.53804 29.4051V25.4051H8.86007V29.4051V33.4051H9.53804V29.4051ZM8.86007 29.4051L12.7041 28.299L12.3931 27.2182L8.54909 28.3242L4.70505 29.4303L5.01602 30.5111L8.86007 29.4051ZM8.54909 28.3242L12.4182 27.3093L11.9508 25.5274L8.08166 26.5424L4.21257 27.5573L4.68 29.3392L8.54909 28.3242ZM8.08166 26.5424V22.5424H8.04496V26.5424V30.5424H8.08166V26.5424ZM8.04496 26.5424L4.06366 26.9287C4.08374 27.1356 4.10268 27.3168 4.12329 27.5574L8.1087 27.2162L12.0941 26.8749C12.0684 26.5742 12.041 26.3074 12.0263 26.1561L8.04496 26.5424ZM8.1087 27.2162L4.1258 27.5856C4.14649 27.8086 4.16451 28.0468 4.17951 28.299L8.17244 28.0613L12.1654 27.8237C12.1456 27.4916 12.1211 27.1651 12.0916 26.8467L8.1087 27.2162ZM8.17244 28.0613L4.17951 28.299C4.19743 28.6001 4.21405 28.8716 4.22907 29.1368L8.22266 28.9104L12.2163 28.6841C12.2004 28.404 12.1822 28.1068 12.1654 27.8237L8.17244 28.0613ZM8.22266 28.9104L4.22898 29.1352C4.24224 29.3708 4.24584 29.5148 4.24584 29.5881H8.24584H12.2458C12.2458 29.307 12.234 28.9992 12.2163 28.6857L8.22266 28.9104ZM8.24584 29.5881H4.24584V31H8.24584H12.2458V29.5881H8.24584ZM8.24584 31V27H7V31V35H8.24584V31ZM7 31L11 31.0026L11.0039 25.0026L7.00386 25L3.00387 24.9974L3 30.9974L7 31ZM16.5437 29.7264V25.7264H14.9135V29.7264V33.7264H16.5437V29.7264ZM14.9135 29.7264L11.0157 28.8279L10.7221 30.1015L14.6199 31L18.5177 31.8985L18.8113 30.6249L14.9135 29.7264ZM14.6199 31V27H13.009V31V35H14.6199V31ZM13.009 31L16.8413 32.1461L18.6357 26.1461L14.8034 25L10.9711 23.8539L9.17673 29.8539L13.009 31ZM14.8034 25V29H16.7079V25V21H14.8034V25ZM16.7079 25L12.8756 26.1461L14.67 32.1461L18.5023 31L22.3346 29.8539L20.5402 23.8539L16.7079 25ZM18.5023 31V27H16.8354V31V35H18.5023V31ZM16.8354 31L20.7345 30.1071L20.4428 28.8335L16.5437 29.7264L12.6447 30.6193L12.9363 31.8929L16.8354 31ZM16.2598 28.4976L20.1673 27.6424L20.0765 27.2276L16.169 28.0828L12.2615 28.938L12.3523 29.3528L16.2598 28.4976ZM16.169 28.0828L20.0647 27.1751C20.0035 26.9126 19.9387 26.6207 19.8668 26.2907L15.9585 27.1422L12.0501 27.9936C12.1251 28.3375 12.1993 28.6726 12.2733 28.9904L16.169 28.0828ZM15.9585 27.1422L19.8678 26.2954C19.7877 25.9255 19.7068 25.5733 19.625 25.237L15.7383 26.1821L11.8515 27.1272C11.9165 27.3945 11.9824 27.6811 12.0491 27.989L15.9585 27.1422ZM15.7383 26.1821V22.1821H15.7016V26.1821V30.1821H15.7383V26.1821ZM15.7016 26.1821L11.7948 25.3237C11.7237 25.6472 11.6511 25.9919 11.583 26.3114L15.4949 27.1461L19.4069 27.9807C19.4816 27.6303 19.5443 27.3324 19.6084 27.0405L15.7016 26.1821ZM15.4949 27.1461L11.5784 26.333C11.5157 26.635 11.4536 26.915 11.3939 27.1693L15.2882 28.0828L19.1825 28.9962C19.2581 28.6741 19.335 28.327 19.4114 27.9591L15.4949 27.1461ZM15.2882 28.0828L11.3807 27.2276L11.2899 27.6424L15.1974 28.4976L19.105 29.3528L19.1957 28.938L15.2882 28.0828ZM15.1974 28.4976V32.4976H16.2598V28.4976V24.4976H15.1974V28.4976ZM21.303 27.9172L24.7997 25.9748L23.1792 23.0575L19.6825 25L16.1858 26.9425L17.8063 29.8597L21.303 27.9172ZM19.6825 25V29H21.4402V25V21H19.6825V25ZM21.4402 25L17.8426 26.7486L18.3178 27.7262L21.9153 25.9776L25.5129 24.229L25.0377 23.2514L21.4402 25ZM21.9153 25.9776L18.303 27.6954C18.3535 27.8017 18.41 27.9248 18.4764 28.0727L22.1259 26.4352L25.7753 24.7978C25.6949 24.6186 25.6123 24.4378 25.5277 24.2598L21.9153 25.9776ZM22.1259 26.4352L18.4764 28.0727C18.5431 28.2213 18.6147 28.3834 18.6916 28.5613L22.3635 26.9747L26.0353 25.3881C25.9422 25.1726 25.8555 24.9764 25.7753 24.7978L22.1259 26.4352ZM22.3635 26.9747V30.9747H22.4002V26.9747V22.9747H22.3635V26.9747ZM22.4002 26.9747L26.1829 28.2749C26.2407 28.1067 26.2735 28.0211 26.2913 27.9787L22.601 26.4352L18.9108 24.8918C18.7933 25.1727 18.6948 25.4492 18.6174 25.6745L22.4002 26.9747ZM22.601 26.4352L26.2978 27.963C26.361 27.8101 26.4144 27.6831 26.4625 27.5725L22.7942 25.9776L19.1259 24.3827C19.0504 24.5564 18.9763 24.7332 18.9043 24.9075L22.601 26.4352ZM22.7942 25.9776L26.4679 27.5599L26.889 26.5823L23.2153 25L19.5415 23.4177L19.1205 24.3953L22.7942 25.9776ZM23.2153 25V29H24.8996V25V21H23.2153V25ZM24.8996 25L21.3825 23.0946L19.762 26.0858L23.279 27.9912L26.796 29.8966L28.4166 26.9054L24.8996 25ZM23.279 27.9912L19.8069 29.9773L21.5279 32.986L25 31L28.4721 29.014L26.7511 26.0052L23.279 27.9912ZM25 31V27H23.2423V31V35H25V31ZM23.2423 31L26.8025 29.1766L26.254 28.1055L22.6937 29.9289L19.1335 31.7523L19.6821 32.8234L23.2423 31ZM22.6937 29.9289L26.2248 28.0497C26.1738 27.9538 26.1441 27.8912 26.1274 27.8529L22.46 29.4499L18.7926 31.0468C18.9151 31.3279 19.0437 31.5847 19.1627 31.8082L22.6937 29.9289ZM22.46 29.4499L26.1274 27.8529C26.0587 27.695 25.9847 27.5248 25.9072 27.3456L22.236 28.9338L18.5648 30.522C18.6456 30.7089 18.7223 30.8853 18.7926 31.0468L22.46 29.4499ZM22.236 28.9338V24.9338H22.1993V28.9338V32.9338H22.236V28.9338ZM22.1993 28.9338L18.4422 27.5609C18.3951 27.69 18.3628 27.7685 18.3416 27.8159L21.9926 29.4499L25.6436 31.0838C25.7654 30.8119 25.8682 30.5476 25.9563 30.3067L22.1993 28.9338ZM21.9926 29.4499L18.3252 27.8529C18.2665 27.9877 18.206 28.1229 18.1437 28.2584L21.7782 29.9289L25.4127 31.5994C25.4972 31.4156 25.5796 31.2314 25.66 31.0468L21.9926 29.4499ZM21.7782 29.9289L18.1691 28.2042L17.6573 29.2753L21.2663 31L24.8754 32.7247L25.3873 31.6536L21.7782 29.9289ZM21.2663 31V27H19.582V31V35H21.2663V31ZM19.582 31L23.0746 32.9498L24.7956 29.867L21.303 27.9172L17.8104 25.9674L16.0894 29.0502L19.582 31Z" fill="#C476E0" mask="url(#path-2-inside-1_1107_1002)"/>
</g>
<defs>
<clipPath id="clip0_1107_1002">
<rect width="32" height="32" fill="white"/>
</clipPath>
</defs>
</svg>
