<svg width="32" height="32" viewBox="0 0 32 32" fill="none" xmlns="http://www.w3.org/2000/svg">
<path d="M23.6 6.3335C24.6078 6.3335 25.5942 6.43931 26.5599 6.65283V6.65381C27.3993 6.83961 28.2127 7.11191 29.0004 7.47119L29.3363 7.63037L29.3402 7.63232C29.4636 7.69244 29.5303 7.76085 29.5756 7.8374V7.83838C29.6367 7.94284 29.6664 8.0503 29.6664 8.17822V23.8228C29.6663 24.0769 29.5917 24.1968 29.4125 24.311C29.3017 24.3816 29.2403 24.3887 29.2162 24.3892C29.1988 24.3894 29.1611 24.3872 29.098 24.3589L29.0258 24.3198L28.9271 24.2681L28.6136 24.1294C27.9848 23.8588 27.3422 23.6323 26.6859 23.4507L26.3568 23.3638H26.3558C25.4536 23.1362 24.5343 23.0229 23.6 23.0229C22.2935 23.023 21.026 23.2165 19.8011 23.605L19.2787 23.7837C18.1393 24.201 17.0627 24.7546 16.0482 25.4399C15.1766 24.8445 14.2529 24.351 13.2758 23.9634L12.7543 23.7681C11.3442 23.2715 9.891 23.0229 8.39978 23.0229C7.57971 23.023 6.77124 23.1126 5.97595 23.2935L5.63611 23.3765L5.63513 23.3774C4.76427 23.6052 3.90949 23.8992 3.07166 24.2593L3.02576 24.2798C2.83809 24.3719 2.72982 24.3634 2.5658 24.2583C2.39492 24.1487 2.33342 24.0422 2.33337 23.8228V8.17822C2.33337 8.04096 2.36358 7.92689 2.42322 7.81982C2.45066 7.77057 2.49007 7.72296 2.55896 7.67725L2.63806 7.63232L2.64197 7.63037C3.53308 7.19174 4.46023 6.86717 5.42419 6.65479L5.42322 6.65381C6.39431 6.44006 7.38635 6.33351 8.39978 6.3335C9.51369 6.3335 10.6001 6.4634 11.6605 6.72217L12.1127 6.84033C13.3075 7.17595 14.4368 7.68609 15.5023 8.37354C15.8341 8.5876 16.2606 8.58653 16.5912 8.37061C17.5105 7.76981 18.4781 7.30444 19.4955 6.97314L19.934 6.83936C21.1215 6.50209 22.3428 6.3335 23.6 6.3335ZM15.933 9.48877C15.9329 9.14823 15.7597 8.83079 15.473 8.64697C14.4226 7.97349 13.2912 7.45685 12.0824 7.09717C10.8717 6.73692 9.64298 6.55615 8.39978 6.55615C7.60568 6.55617 6.82153 6.637 6.04822 6.79834L5.71716 6.87158C5.07967 7.02439 4.44634 7.21257 3.81775 7.43506L3.18982 7.66943C2.80728 7.81982 2.55606 8.18904 2.55603 8.6001V22.644L2.56384 22.7681C2.59942 23.0538 2.75681 23.3126 2.99939 23.4751C3.2767 23.6607 3.62839 23.696 3.93689 23.5688C4.49929 23.337 5.11045 23.1553 5.77283 23.0269L6.05896 22.9751H6.05994C6.84752 22.8432 7.62731 22.7778 8.39978 22.7778C9.33091 22.7778 10.2376 22.8714 11.1205 23.0581L11.4974 23.144C12.5014 23.3882 13.4974 23.7562 14.4857 24.2505C14.7957 24.4055 15.1645 24.3887 15.4594 24.2065C15.754 24.0243 15.9329 23.7024 15.933 23.356V9.48877ZM29.4447 8.6001C29.4447 8.21416 29.222 7.86246 28.8734 7.69678C28.155 7.3553 27.4055 7.0921 26.6263 6.90674L26.2904 6.83154H26.2894C25.4001 6.64771 24.5032 6.55615 23.6 6.55615C22.3534 6.55616 21.1361 6.73749 19.9515 7.1001C18.7745 7.46045 17.6616 7.97617 16.6156 8.64697C16.329 8.8308 16.1558 9.14827 16.1556 9.48877V23.356C16.1557 23.7013 16.3341 24.0221 16.6273 24.2046C16.884 24.3642 17.1971 24.3985 17.4789 24.3022L17.598 24.2524C18.482 23.8165 19.3489 23.4805 20.1986 23.2397L20.5619 23.1421C21.517 22.9006 22.5287 22.7778 23.6 22.7778C24.3758 22.7778 25.1672 22.8406 25.974 22.9663C26.7815 23.0922 27.4949 23.2644 28.1185 23.479C28.4241 23.5842 28.7617 23.5348 29.0248 23.3472C29.2878 23.1595 29.4446 22.8568 29.4447 22.5337V8.6001Z" stroke="#C476E0" stroke-width="2" stroke-linejoin="round"/>
<path d="M19.0561 12.8886C19.0561 12.8886 22.6574 10.4331 26.0451 12.4959" stroke="#C476E0" stroke-width="1.5" stroke-linecap="round"/>
<path d="M19.2805 15.8886C19.2805 15.8886 22.8817 13.4331 26.2694 15.4959" stroke="#C476E0" stroke-width="1.5" stroke-linecap="round"/>
<path d="M19.505 18.8783C19.505 18.8783 23.1062 16.4229 26.4939 18.4856" stroke="#C476E0" stroke-width="1.5" stroke-linecap="round"/>
</svg>
