<svg width="32" height="32" viewBox="0 0 32 32" fill="none" xmlns="http://www.w3.org/2000/svg">
<path d="M26.2318 23.8073L5.33649 8.7935C5.15714 8.66463 5.12994 8.40834 5.27824 8.2447C5.40457 8.1053 5.61541 8.08292 5.76818 8.1927L26.6635 23.2065C26.8429 23.3354 26.8701 23.5917 26.7218 23.7553C26.5954 23.8947 26.3846 23.9171 26.2318 23.8073Z" stroke="#C476E0"/>
<path d="M5.76818 23.8073L26.6635 8.7935C26.8429 8.66463 26.8701 8.40834 26.7218 8.2447C26.5954 8.1053 26.3846 8.08292 26.2318 8.1927L5.33649 23.2065C5.15714 23.3354 5.12994 23.5917 5.27824 23.7553C5.40457 23.8947 5.61541 23.9171 5.76818 23.8073Z" stroke="#C476E0"/>
</svg>
