<svg width="31" height="32" viewBox="0 0 31 32" fill="none" xmlns="http://www.w3.org/2000/svg">
<path d="M25.0996 2.01367C25.3274 1.97565 25.5629 2.01732 25.7646 2.13379C25.9951 2.2669 26.1623 2.48691 26.2305 2.74414L28.9668 13.0713C29.0205 13.2744 29.009 13.4887 28.9346 13.6836L28.8984 13.7666C28.888 13.7879 28.8762 13.8086 28.8643 13.8291L27.6016 16L28.8643 18.1729C28.9975 18.4022 29.0347 18.6753 28.9668 18.9316L26.2305 29.2559C26.1623 29.5131 25.995 29.7331 25.7646 29.8662C25.5342 29.9993 25.2598 30.0344 25.0029 29.9648L14.792 27.1982C14.5331 27.128 14.313 26.9566 14.1816 26.7227L12.9561 24.54L10.4814 24.5596H10.4736C10.2066 24.5594 9.95044 24.4525 9.7627 24.2627L2.28906 16.7051C1.90385 16.3155 1.90397 15.6885 2.28906 15.2988L9.7627 7.73828L9.83691 7.6709C10.0173 7.52182 10.2454 7.43969 10.4814 7.44141L12.957 7.45898L14.1807 5.27832L14.2344 5.19336C14.368 5.00293 14.5645 4.86421 14.791 4.80273L25.0029 2.03516L25.0996 2.01367ZM14.3105 22.2041L19.5537 23.5664L16.5342 18.2764H10.5059L14.3105 22.2041ZM20.4502 16L23.459 21.2705L24.9131 16L23.459 10.7285L20.4502 16ZM14.3105 9.79492L10.5068 13.7236H16.5342L19.5527 8.43164L14.3105 9.79492Z" fill="#C476E0" fill-opacity="0.2" stroke="#C476E0" stroke-width="2" stroke-linejoin="round"/>
</svg>
