<svg width="32" height="32" viewBox="0 0 32 32" fill="none" xmlns="http://www.w3.org/2000/svg">
<path d="M15.3672 2.00586C15.7644 1.96325 16.1568 2.16247 16.3525 2.52344C16.576 2.93579 16.4832 3.44854 16.1289 3.75586C13.6524 5.90369 13.985 7.40133 14.252 7.87305L14.2549 7.87695C14.5244 7.73856 14.8461 7.7263 15.1289 7.85645C15.4833 8.01974 15.7109 8.37445 15.7109 8.76465V21.126C15.8027 21.2295 15.8778 21.297 15.9736 21.3525C16.1242 21.4397 16.4199 21.5517 17.0537 21.5518C17.138 21.5518 17.3753 21.5073 17.7441 21.3008C18.015 21.1491 18.3179 20.9292 18.6309 20.6426C18.6335 18.6002 18.6487 11.2174 18.6309 10.2686V10.2676C18.6281 10.1084 18.4862 9.78931 18.1592 9.3916C18.0177 9.21961 17.8737 9.07213 17.7646 8.9668C17.7108 8.91479 17.6667 8.87456 17.6377 8.84863C17.6232 8.8357 17.6126 8.82563 17.6064 8.82031L17.6025 8.81738L17.4912 8.70703C17.2541 8.43443 17.1794 8.05051 17.3076 7.7041C17.4545 7.30813 17.8346 7.04699 18.2568 7.05176L18.2451 8.05176L18.2578 7.05176H18.29C18.3074 7.05219 18.3311 7.05355 18.3604 7.05469C18.4191 7.05698 18.5015 7.06106 18.6006 7.06836C18.7971 7.08284 19.0693 7.11059 19.3682 7.16406C19.6637 7.21695 20.01 7.29844 20.3438 7.43066C20.3643 7.43881 20.3843 7.44925 20.4053 7.45801C21.5691 6.20319 23.0271 5.2685 24.3379 4.61035C25.8815 3.83532 27.319 3.39378 28.0234 3.26465L28.1162 3.25293C28.5777 3.21193 29.0127 3.49524 29.1562 3.94434C29.2924 4.37126 29.1265 4.82801 28.7666 5.07324C28.7481 5.09188 28.718 5.12422 28.6748 5.17383C28.5697 5.29461 28.4293 5.47063 28.2607 5.69336C27.9258 6.1359 27.5149 6.71411 27.1123 7.2959C26.7111 7.87559 26.3246 8.45019 26.0371 8.87988C25.9135 9.06468 25.8079 9.22209 25.7285 9.3418V20.8164C25.7384 20.825 25.7434 20.8313 25.7461 20.833C25.7471 20.8336 25.7465 20.8373 25.7725 20.8369C25.8775 20.8355 26.1236 20.7655 26.5596 20.4795C26.972 20.2089 27.4177 19.8395 27.918 19.4219C28.3952 19.0235 28.9286 18.5751 29.4482 18.2314C29.8146 17.9892 30.2966 18.0148 30.6357 18.2939C30.9748 18.5731 31.0921 19.0412 30.9248 19.4473C29.8529 22.0483 27.9784 24.202 26.417 25.6836C25.6301 26.4303 24.9072 27.0205 24.3799 27.4248C24.1161 27.6271 23.8999 27.7834 23.748 27.8906C23.6721 27.9442 23.6124 27.986 23.5703 28.0146C23.5493 28.0289 23.5323 28.04 23.5205 28.0479C23.5147 28.0517 23.5103 28.0553 23.5068 28.0576C23.5051 28.0588 23.5031 28.0598 23.502 28.0605L23.501 28.0615H23.5C23.1272 28.3068 22.6372 28.2753 22.2988 27.9844L20.2256 26.2031C20.1178 26.3218 20.0012 26.4521 19.876 26.5889C19.2928 27.2257 18.5408 28.0346 17.8828 28.7021C17.67 28.9179 17.3708 29.0258 17.0693 28.9951C14.0997 28.6924 11.7696 27.7928 10.0869 26.7979C8.44169 25.825 7.3363 24.7112 6.91406 23.9092C6.72964 23.5584 6.77003 23.1315 7.0166 22.8213C7.26321 22.5113 7.66954 22.3761 8.05273 22.4766C8.61674 22.6247 8.84331 22.5585 8.90723 22.5264V12.8564C8.83466 12.6712 8.77116 12.5984 8.74707 12.5752C8.72179 12.5752 8.66826 12.5811 8.57422 12.6143C8.10011 12.7818 7.38473 13.3579 6.53906 14.2861C4.90962 16.0747 3.30507 18.5881 2.86523 19.3486C2.63867 19.7399 2.17792 19.9305 1.74121 19.8135C1.30424 19.6962 1.00004 19.3001 1 18.8477C1 17.5718 1.14362 16.0487 1.85352 14.2471C2.56011 12.454 3.8082 10.4335 5.9541 8.12402L6.3623 7.69531C8.40965 5.59939 10.5272 4.21322 12.1699 3.33984C13.0468 2.87363 13.7916 2.5525 14.3223 2.3457C14.5877 2.24226 14.8 2.16707 14.9492 2.11719C15.0236 2.09232 15.0822 2.07349 15.124 2.06055C15.1446 2.05416 15.1616 2.04954 15.1738 2.0459C15.18 2.04407 15.1855 2.04216 15.1895 2.04102C15.1913 2.04048 15.193 2.04043 15.1943 2.04004L15.1963 2.03906H15.1973L15.3672 2.00586ZM14.0664 7.99902C14.0802 7.98741 14.0961 7.97854 14.1104 7.96777C14.1054 7.96958 14.1036 7.97165 14.1035 7.97168C14.1031 7.97193 14.1013 7.9733 14.0967 7.97656C14.0939 7.97855 14.0896 7.98194 14.084 7.98633C14.0812 7.98852 14.0778 7.99116 14.0742 7.99414C14.0724 7.99568 14.0695 7.99726 14.0674 7.99902H14.0664Z" fill="#C476E0" fill-opacity="0.2" stroke="#C476E0" stroke-width="2" stroke-linejoin="round"/>
</svg>
