<svg width="28" height="28" viewBox="0 0 28 28" fill="none" xmlns="http://www.w3.org/2000/svg">
<g clip-path="url(#clip0_1105_968)">
<path d="M13.9951 1.15039C17.2966 1.15171 20.3959 2.39358 22.7725 4.65918L23 4.88184C25.3298 7.21349 26.6422 10.2835 26.7207 13.5664L26.7246 13.8848C26.7216 20.8996 21.0099 26.6092 13.9961 26.6094H13.9902L13.5918 26.6025C11.5988 26.5394 9.65014 26.0103 7.9082 25.0605L7.50781 24.8428L7.06543 24.958L1.63477 26.3818L3.07812 21.1143L3.20508 20.6514L2.96484 20.2354C1.85165 18.3068 1.26567 16.118 1.2666 13.874L1.27051 13.5459C1.44524 6.79074 6.91271 1.32594 13.668 1.1543L13.9951 1.15039ZM14 1.19336C7.1119 1.1935 1.49133 6.70406 1.31445 13.5469L1.30957 13.874C1.30864 16.1189 1.89802 18.3112 3.01855 20.2412L3.25 20.624L3.25488 20.6318L2.22363 24.3994L1.69727 26.3213L3.62402 25.8164L7.52441 24.792L7.5332 24.7979C9.36078 25.882 11.4374 26.4865 13.5645 26.5586L13.9902 26.5664H13.9961C20.88 26.5662 26.5002 21.0541 26.6768 14.2109L26.6816 13.8848C26.6829 10.4984 25.3633 7.30762 22.9697 4.91211C20.6509 2.59142 17.5853 1.27822 14.3174 1.19727L14.001 1.19336H14ZM9.50879 8.62305C9.65474 8.97521 9.87352 9.5068 10.0742 9.99414C10.2233 10.3561 10.3817 10.7346 10.4824 10.9678C10.4773 10.9775 10.4739 10.9867 10.4697 10.9941L10.4043 11.0859C10.2807 11.2303 10.1951 11.3363 10.126 11.4209L9.94629 11.626C9.88976 11.6822 9.60651 11.9429 9.46289 12.3291C9.30156 12.7634 9.35489 13.1952 9.53027 13.5703L9.6123 13.7275C9.81983 14.0836 10.5086 15.2135 11.5557 16.2109L11.7695 16.4082C13.2431 17.7221 14.5754 18.1827 14.8096 18.2998V18.2988C15.0587 18.4235 15.4414 18.5753 15.8926 18.5205C16.3907 18.46 16.7304 18.1828 16.9414 17.9414L16.9404 17.9404C17.0809 17.7798 17.5116 17.2768 17.8398 16.8555C17.8667 16.8678 17.8953 16.8808 17.9248 16.8945C18.1274 16.9887 18.3755 17.1077 18.6279 17.2295L19.8086 17.8076C19.8256 17.8161 19.8428 17.8238 19.8594 17.832C19.8414 17.9468 19.8155 18.0782 19.7754 18.2197L19.7021 18.4463C19.698 18.4543 19.6685 18.513 19.5703 18.6133C19.4641 18.7217 19.3155 18.8405 19.1367 18.9551C18.8477 19.1403 18.5737 19.2566 18.4053 19.3105L18.2754 19.3438C17.8361 19.4094 17.35 19.4328 16.832 19.3096L16.6084 19.248C16.2433 19.1321 15.8118 18.9901 15.291 18.7852L14.7393 18.5576C11.9929 17.3721 10.0526 14.7736 9.45312 13.9326L9.2793 13.6895C9.2046 13.5898 8.89807 13.1827 8.61133 12.6182C8.31643 12.0375 8.09387 11.3872 8.09375 10.793C8.09375 9.87336 8.43019 9.33495 8.73047 8.97949L9.00488 8.67676C9.02362 8.65632 9.03962 8.64435 9.05078 8.63672C9.06207 8.62902 9.07173 8.62407 9.0791 8.62109C9.08625 8.61823 9.09196 8.61677 9.09473 8.61621C9.24302 8.61627 9.38241 8.61989 9.50879 8.62305Z" stroke="#C476E0" stroke-width="2.3"/>
</g>
<defs>
<clipPath id="clip0_1105_968">
<rect width="28" height="28" fill="white"/>
</clipPath>
</defs>
</svg>
